<svg width="26" height="29" viewBox="0 0 26 29" fill="none" xmlns="http://www.w3.org/2000/svg">
<path fill-rule="evenodd" clip-rule="evenodd" d="M15.1823 0.552106C15.9967 0.905643 16.4806 1.75378 16.3705 2.63478L15.4515 9.98671H23.9859C24.762 9.98671 25.4679 10.4356 25.7971 11.1384C26.1263 11.8412 26.0192 12.6709 25.5224 13.2671L13.5224 27.6671C12.954 28.3491 12.004 28.5749 11.1895 28.2213C10.3751 27.8678 9.89124 27.0196 10.0014 26.1386L10.9204 18.7867H2.38592C1.60988 18.7867 0.9039 18.3378 0.57474 17.635C0.245581 16.9323 0.352671 16.1025 0.849477 15.5063L12.8495 1.10634C13.4179 0.424271 14.3679 0.198568 15.1823 0.552106ZM6.656 14.7867H13.1859C13.7596 14.7867 14.3056 15.033 14.6853 15.4631C15.0649 15.8932 15.2416 16.4655 15.1705 17.0348L14.8166 19.8658L19.7158 13.9867H13.1859C12.6123 13.9867 12.0662 13.7404 11.6866 13.3103C11.3069 12.8803 11.1302 12.3079 11.2014 11.7386L11.5552 8.90762L6.656 14.7867Z" fill="#0147FF"/>
</svg>
